<svg width="49" height="50" viewBox="0 0 49 50" fill="none" xmlns="http://www.w3.org/2000/svg">
<path d="M28.591 24.5651L22.859 21.8359C22.3588 21.599 21.9479 21.8646 21.9479 22.4297V27.5703C21.9479 28.1354 22.3588 28.401 22.859 28.1641L28.5884 25.4349C29.0912 25.1953 29.0912 24.8047 28.591 24.5651ZM24.5 0C10.9689 0 0 11.1927 0 25C0 38.8073 10.9689 50 24.5 50C38.0311 50 49 38.8073 49 25C49 11.1927 38.0311 0 24.5 0ZM24.5 35.1562C11.9591 35.1562 11.7396 34.0026 11.7396 25C11.7396 15.9974 11.9591 14.8437 24.5 14.8437C37.0409 14.8437 37.2604 15.9974 37.2604 25C37.2604 34.0026 37.0409 35.1562 24.5 35.1562Z" fill="#004F84"/>
</svg>
