<svg width="20" height="20" viewBox="0 0 20 20" fill="none" xmlns="http://www.w3.org/2000/svg">
<path d="M10 6.5C10 6.36739 9.94733 6.24021 9.85356 6.14645C9.75979 6.05268 9.63261 6 9.5 6C9.3674 6 9.24022 6.05268 9.14645 6.14645C9.05268 6.24021 9 6.36739 9 6.5V10.5C9 10.6326 9.05268 10.7598 9.14645 10.8536C9.24022 10.9473 9.3674 11 9.5 11H12.5C12.6326 11 12.7598 10.9473 12.8536 10.8536C12.9473 10.7598 13 10.6326 13 10.5C13 10.3674 12.9473 10.2402 12.8536 10.1464C12.7598 10.0527 12.6326 10 12.5 10H10V6.5ZM3.353 7.8C2.93428 7.50506 2.59273 7.11364 2.35723 6.65882C2.12173 6.204 1.9992 5.69917 2 5.187C2 3.431 3.414 2 5.166 2C6.243 2 7.192 2.542 7.763 3.365C8.48386 3.12248 9.23945 2.99919 10 3C10.758 2.99913 11.5112 3.12139 12.23 3.362C12.5211 2.94184 12.9097 2.59847 13.3625 2.36127C13.8153 2.12407 14.3188 2.00011 14.83 2C15.2466 2.00026 15.6591 2.0826 16.044 2.24231C16.4288 2.40203 16.7783 2.63599 17.0727 2.93082C17.3671 3.22566 17.6005 3.57561 17.7596 3.96067C17.9187 4.34573 18.0004 4.75836 18 5.175C18 6.255 17.462 7.208 16.641 7.782C16.874 8.479 17 9.225 17 10C17.0024 11.6844 16.3949 13.3127 15.29 14.584L16.854 16.146C16.9478 16.2399 17.0004 16.3672 17.0003 16.4999C17.0002 16.6325 16.9474 16.7597 16.8535 16.8535C16.7596 16.9473 16.6323 16.9999 16.4997 16.9998C16.367 16.9997 16.2398 16.9469 16.146 16.853L14.584 15.291C13.3125 16.3956 11.6843 17.0026 10 17C8.31562 17.0024 6.68732 16.3949 5.416 15.29L3.854 16.854C3.80758 16.9005 3.75246 16.9374 3.69178 16.9626C3.6311 16.9877 3.56605 17.0007 3.50036 17.0008C3.43466 17.0008 3.3696 16.9879 3.30888 16.9628C3.24817 16.9377 3.19299 16.9009 3.1465 16.8545C3.10002 16.8081 3.06313 16.753 3.03794 16.6923C3.01276 16.6316 2.99977 16.5666 2.99973 16.5009C2.99968 16.4352 3.01257 16.3701 3.03767 16.3094C3.06277 16.2487 3.09958 16.1935 3.146 16.147L4.709 14.584C3.60442 13.3125 2.99737 11.6843 3 10C3 9.231 3.124 8.492 3.353 7.8ZM3 5.187C3 5.849 3.291 6.442 3.75 6.843C4.42052 5.52 5.4923 4.44297 6.812 3.766C6.61003 3.5261 6.35806 3.33324 6.07374 3.20093C5.78941 3.06861 5.47961 3.00004 5.166 3C4.88016 3.00131 4.59738 3.05893 4.33381 3.16955C4.07024 3.28018 3.83105 3.44166 3.62991 3.64475C3.42876 3.84785 3.2696 4.08859 3.16152 4.35321C3.05344 4.61783 2.99856 4.90116 3 5.187ZM16.242 6.827C16.706 6.428 17 5.837 17 5.175C17.0004 4.88968 16.9446 4.60709 16.8357 4.34335C16.7269 4.07962 16.5671 3.83991 16.3656 3.63793C16.1641 3.43595 15.9248 3.27565 15.6613 3.16619C15.3978 3.05674 15.1153 3.00026 14.83 3C14.17 3 13.579 3.295 13.18 3.763C14.4971 4.43718 15.568 5.50976 16.24 6.828L16.242 6.827ZM4 10C4 11.5913 4.63215 13.1174 5.75736 14.2426C6.88258 15.3679 8.4087 16 10 16C11.5913 16 13.1174 15.3679 14.2426 14.2426C15.3679 13.1174 16 11.5913 16 10C16 8.4087 15.3679 6.88258 14.2426 5.75736C13.1174 4.63214 11.5913 4 10 4C8.4087 4 6.88258 4.63214 5.75736 5.75736C4.63215 6.88258 4 8.4087 4 10Z" fill="#A9A9AA"/>
</svg>
