<svg width="60" height="92" viewBox="0 0 60 92" fill="none" xmlns="http://www.w3.org/2000/svg">
<g clip-path="url(#clip0_562_3505)">
<path d="M6.42088 89.5333H4.80762C3.44858 89.5333 2.35352 88.4401 2.35352 87.1051V74.7998C2.35352 73.4551 3.45835 72.3716 4.80762 72.3716H6.42088C7.77993 72.3716 8.87499 73.4648 8.87499 74.7998V87.1051C8.88477 88.4498 7.77993 89.5333 6.42088 89.5333Z" fill="#181B26"/>
<path d="M54.1328 89.5333H55.7559C57.1149 89.5333 58.21 88.4401 58.21 87.1051V74.7998C58.21 73.4551 57.1051 72.3716 55.7559 72.3716H54.1328C52.7738 72.3716 51.6787 73.4648 51.6787 74.7998V87.1051C51.6787 88.4498 52.7738 89.5333 54.1328 89.5333Z" fill="#181B26"/>
<path d="M1.56152 12.8568L7.16393 20.2477V11.8604L1.56152 12.8568Z" fill="#004D88"/>
<path d="M58.993 12.8568L53.3906 20.2477V11.8604L58.993 12.8568Z" fill="#004D88"/>
<path d="M43.8185 4.00505L41.1787 0.84164C40.7289 0.309569 40.064 0 39.3699 0H21.184C20.4898 0 19.825 0.309569 19.385 0.84164L16.7451 4.00505H43.8185Z" fill="#004D88"/>
<path d="M54.5537 12.4698L52.1289 90.0362C52.0898 91.1294 51.1903 91.9903 50.0855 91.9903H30.2766H10.4678C9.36291 91.9903 8.4634 91.1197 8.42429 90.0362L5.99951 12.4698H54.5537Z" fill="#004D88"/>
<path d="M14.9756 12.7793L15.8164 18.8352C15.836 18.9997 16.0706 18.9997 16.0902 18.8352L16.9311 12.7793H14.9756Z" fill="#004D88"/>
<path d="M29.269 12.7793L30.1099 18.8352C30.1294 18.9997 30.3641 18.9997 30.3837 18.8352L31.2245 12.7793H29.269Z" fill="#004D88"/>
<path d="M43.5542 12.7794L44.395 18.8354C44.4146 18.9998 44.6493 18.9998 44.6688 18.8354L45.5097 12.7794H43.5542Z" fill="#004D88"/>
<path d="M59.2177 9.47092C59.2177 9.47092 58.3769 5.35946 54.6126 3.63748C54.2606 3.47302 53.8695 3.39563 53.4784 3.39563H7.07523C6.68414 3.39563 6.29304 3.4827 5.94106 3.63748C2.17679 5.35946 1.33594 9.47092 1.33594 9.47092H59.2177Z" fill="#004D88"/>
<path d="M59.5306 13.0115H1.02302C0.768812 13.0115 0.553711 12.8084 0.553711 12.5472V9.23865C0.553711 8.98712 0.759035 8.77429 1.02302 8.77429H59.5403C59.7945 8.77429 60.0096 8.97745 60.0096 9.23865V12.5472C59.9999 12.8084 59.7945 13.0115 59.5306 13.0115Z" fill="#3F5E75"/>
</g>
<defs>
<clipPath id="clip0_562_3505">
<rect width="59.4462" height="92" fill="white" transform="translate(0.553711)"/>
</clipPath>
</defs>
</svg>
