<svg width="151" height="92" viewBox="0 0 151 92" fill="none" xmlns="http://www.w3.org/2000/svg">
<g clip-path="url(#clip0_534_3)">
<path d="M97.4209 89.5333H95.8076C94.4486 89.5333 93.3535 88.4401 93.3535 87.1051V74.7998C93.3535 73.4551 94.4584 72.3716 95.8076 72.3716H97.4209C98.7799 72.3716 99.875 73.4648 99.875 74.7998V87.1051C99.8848 88.4498 98.7799 89.5333 97.4209 89.5333Z" fill="#181B26"/>
<path d="M145.133 89.5333H146.756C148.115 89.5333 149.21 88.4401 149.21 87.1051V74.7998C149.21 73.4551 148.105 72.3716 146.756 72.3716H145.133C143.774 72.3716 142.679 73.4648 142.679 74.7998V87.1051C142.679 88.4498 143.774 89.5333 145.133 89.5333Z" fill="#181B26"/>
<path d="M92.5615 12.8568L98.1639 20.2477V11.8604L92.5615 12.8568Z" fill="#2A8054"/>
<path d="M149.993 12.8568L144.391 20.2477V11.8604L149.993 12.8568Z" fill="#2A8054"/>
<path d="M134.819 4.00505L132.179 0.84164C131.729 0.309569 131.064 0 130.37 0H112.184C111.49 0 110.825 0.309569 110.385 0.84164L107.745 4.00505H134.819Z" fill="#2A8054"/>
<path d="M145.554 12.4698L143.129 90.0362C143.09 91.1294 142.191 91.9903 141.086 91.9903H121.277H101.468C100.363 91.9903 99.4639 91.1197 99.4248 90.0362L97 12.4698H145.554Z" fill="#2A8054"/>
<path d="M105.976 12.7793L106.816 18.8352C106.836 18.9997 107.071 18.9997 107.09 18.8352L107.931 12.7793H105.976Z" fill="#2A8054"/>
<path d="M120.27 12.7793L121.11 18.8352C121.13 18.9997 121.365 18.9997 121.384 18.8352L122.225 12.7793H120.27Z" fill="#2A8054"/>
<path d="M134.555 12.7794L135.396 18.8354C135.415 18.9998 135.65 18.9998 135.669 18.8354L136.51 12.7794H134.555Z" fill="#2A8054"/>
<path d="M150.218 9.47092C150.218 9.47092 149.377 5.35946 145.613 3.63748C145.261 3.47302 144.87 3.39563 144.478 3.39563H98.0752C97.6841 3.39563 97.293 3.4827 96.9411 3.63748C93.1768 5.35946 92.3359 9.47092 92.3359 9.47092H150.218Z" fill="#2A8054"/>
<path d="M150.531 13.0115H92.023C91.7688 13.0115 91.5537 12.8084 91.5537 12.5472V9.23865C91.5537 8.98712 91.759 8.77429 92.023 8.77429H150.54C150.795 8.77429 151.01 8.97745 151.01 9.23865V12.5472C151 12.8084 150.795 13.0115 150.531 13.0115Z" fill="#329C66"/>
</g>
<g clip-path="url(#clip1_534_3)">
<path d="M5.82297 89.5333H4.22182C2.87297 89.5333 1.78613 88.4401 1.78613 87.1051V74.7998C1.78613 73.4551 2.88268 72.3716 4.22182 72.3716H5.82297C7.17182 72.3716 8.25867 73.4648 8.25867 74.7998V87.1051C8.26837 88.4498 7.17182 89.5333 5.82297 89.5333Z" fill="#181B26"/>
<path d="M53.1769 89.5333H54.7878C56.1366 89.5333 57.2234 88.4401 57.2234 87.1051V74.7998C57.2234 73.4551 56.1269 72.3716 54.7878 72.3716H53.1769C51.8281 72.3716 50.7412 73.4648 50.7412 74.7998V87.1051C50.7412 88.4498 51.8281 89.5333 53.1769 89.5333Z" fill="#181B26"/>
<path d="M1 12.8568L6.56036 20.2477V11.8604L1 12.8568Z" fill="#EEE03D"/>
<path d="M58.0008 12.8568L52.4404 20.2477V11.8604L58.0008 12.8568Z" fill="#EEE03D"/>
<path d="M42.9396 4.00505L40.3195 0.84164C39.8731 0.309569 39.2133 0 38.5243 0H20.4749C19.7859 0 19.1261 0.309569 18.6894 0.84164L16.0693 4.00505H42.9396Z" fill="#EEE03D"/>
<path d="M53.5951 12.4698L51.1885 90.0362C51.1497 91.1294 50.2569 91.9903 49.1604 91.9903H29.5002H9.83998C8.74343 91.9903 7.85067 91.1197 7.81185 90.0362L5.40527 12.4698H53.5951Z" fill="#EEE03D"/>
<path d="M14.3135 12.7793L15.148 18.8352C15.1674 18.9997 15.4003 18.9997 15.4197 18.8352L16.2543 12.7793H14.3135Z" fill="#EEE03D"/>
<path d="M28.5 12.7793L29.3345 18.8352C29.3539 18.9997 29.5868 18.9997 29.6062 18.8352L30.4408 12.7793H28.5Z" fill="#EEE03D"/>
<path d="M42.6777 12.7794L43.5123 18.8354C43.5317 18.9998 43.7646 18.9998 43.784 18.8354L44.6185 12.7794H42.6777Z" fill="#EEE03D"/>
<path d="M58.2237 9.47092C58.2237 9.47092 57.3892 5.35946 53.6532 3.63748C53.3038 3.47302 52.9157 3.39563 52.5275 3.39563H6.47258C6.08443 3.39563 5.69627 3.4827 5.34693 3.63748C1.61091 5.35946 0.776367 9.47092 0.776367 9.47092H58.2237Z" fill="#EEE03D"/>
<path d="M58.5342 13.0115H0.465789C0.213487 13.0115 0 12.8084 0 12.5472V9.23865C0 8.98712 0.203783 8.77429 0.465789 8.77429H58.5439C58.7962 8.77429 59.0097 8.97745 59.0097 9.23865V12.5472C59 12.8084 58.7962 13.0115 58.5342 13.0115Z" fill="#BEB331"/>
</g>
<defs>
<clipPath id="clip0_534_3">
<rect width="59.4462" height="92" fill="white" transform="translate(91.5537)"/>
</clipPath>
<clipPath id="clip1_534_3">
<rect width="59" height="92" fill="white"/>
</clipPath>
</defs>
</svg>
