<svg width="59" height="92" viewBox="0 0 59 92" fill="none" xmlns="http://www.w3.org/2000/svg">
<g clip-path="url(#clip0_562_3491)">
<path d="M5.82297 89.5333H4.22182C2.87297 89.5333 1.78613 88.4401 1.78613 87.1051V74.7998C1.78613 73.4551 2.88268 72.3716 4.22182 72.3716H5.82297C7.17182 72.3716 8.25867 73.4648 8.25867 74.7998V87.1051C8.26837 88.4498 7.17182 89.5333 5.82297 89.5333Z" fill="#181B26"/>
<path d="M53.1769 89.5333H54.7878C56.1366 89.5333 57.2234 88.4401 57.2234 87.1051V74.7998C57.2234 73.4551 56.1269 72.3716 54.7878 72.3716H53.1769C51.8281 72.3716 50.7412 73.4648 50.7412 74.7998V87.1051C50.7412 88.4498 51.8281 89.5333 53.1769 89.5333Z" fill="#181B26"/>
<path d="M1 12.8568L6.56036 20.2477V11.8604L1 12.8568Z" fill="#EEE03D"/>
<path d="M58.0008 12.8568L52.4404 20.2477V11.8604L58.0008 12.8568Z" fill="#EEE03D"/>
<path d="M42.9396 4.00505L40.3195 0.84164C39.8731 0.309569 39.2133 0 38.5243 0H20.4749C19.7859 0 19.1261 0.309569 18.6894 0.84164L16.0693 4.00505H42.9396Z" fill="#EEE03D"/>
<path d="M53.5951 12.4698L51.1885 90.0362C51.1497 91.1294 50.2569 91.9903 49.1604 91.9903H29.5002H9.83998C8.74343 91.9903 7.85067 91.1197 7.81185 90.0362L5.40527 12.4698H53.5951Z" fill="#EEE03D"/>
<path d="M14.3135 12.7793L15.148 18.8352C15.1674 18.9997 15.4003 18.9997 15.4197 18.8352L16.2543 12.7793H14.3135Z" fill="#EEE03D"/>
<path d="M28.5 12.7793L29.3345 18.8352C29.3539 18.9997 29.5868 18.9997 29.6062 18.8352L30.4408 12.7793H28.5Z" fill="#EEE03D"/>
<path d="M42.6777 12.7794L43.5123 18.8354C43.5317 18.9998 43.7646 18.9998 43.784 18.8354L44.6185 12.7794H42.6777Z" fill="#EEE03D"/>
<path d="M58.2237 9.47092C58.2237 9.47092 57.3892 5.35946 53.6532 3.63748C53.3038 3.47302 52.9157 3.39563 52.5275 3.39563H6.47258C6.08443 3.39563 5.69627 3.4827 5.34693 3.63748C1.61091 5.35946 0.776367 9.47092 0.776367 9.47092H58.2237Z" fill="#EEE03D"/>
<path d="M58.5342 13.0115H0.465789C0.213487 13.0115 0 12.8084 0 12.5472V9.23865C0 8.98712 0.203783 8.77429 0.465789 8.77429H58.5439C58.7962 8.77429 59.0097 8.97745 59.0097 9.23865V12.5472C59 12.8084 58.7962 13.0115 58.5342 13.0115Z" fill="#BEB331"/>
</g>
<defs>
<clipPath id="clip0_562_3491">
<rect width="59" height="92" fill="white"/>
</clipPath>
</defs>
</svg>
